<svg width="18" height="18" viewBox="0 0 18 18" fill="none" xmlns="http://www.w3.org/2000/svg">
<path fill-rule="evenodd" clip-rule="evenodd" d="M16 9C14.895 9 14 8.104 14 7C14 5.895 14.895 5 16 5C17.104 5 18 5.895 18 7C18 8.104 17.104 9 16 9ZM15 4.184V0H17V4.184C16.686 4.072 16.352 4 16 4C15.647 4 15.314 4.072 15 4.184ZM9 13C7.895 13 7 12.105 7 11C7 9.895 7.895 9 9 9C10.105 9 11 9.895 11 11C11 12.105 10.105 13 9 13ZM8 8.184V0H10V8.184C9.685 8.072 9.352 8 9 8C8.647 8 8.314 8.072 8 8.184ZM2 9C0.895 9 0 8.104 0 7C0 5.895 0.895 5 2 5C3.104 5 4 5.895 4 7C4 8.104 3.104 9 2 9ZM1 4.184V0H3V4.184C2.685 4.072 2.352 4 2 4C1.647 4 1.314 4.072 1 4.184ZM3 9.816V18H1V9.816C1.314 9.928 1.647 10 2 10C2.352 10 2.685 9.928 3 9.816ZM10 13.816V18H8V13.816C8.314 13.928 8.647 14 9 14C9.352 14 9.685 13.928 10 13.816ZM17 9.816V18H15V9.816C15.314 9.928 15.647 10 16 10C16.352 10 16.686 9.928 17 9.816Z" fill="#23252B"/>
</svg>
