<svg width="26" height="25" viewBox="0 0 26 25" fill="none" xmlns="http://www.w3.org/2000/svg">
<path fill-rule="evenodd" clip-rule="evenodd" d="M21.4999 6.09545C21.4999 6.89051 20.8013 7.53618 19.9392 7.53618C19.0781 7.53618 18.3807 6.89051 18.3807 6.09545C18.3807 5.2994 19.0781 4.65574 19.9392 4.65574C20.8013 4.65574 21.4999 5.2994 21.4999 6.09545ZM13 16.5013C10.6064 16.5013 8.66775 14.7097 8.66775 12.5C8.66775 10.2913 10.6064 8.50067 13 8.50067C15.3947 8.50067 17.3333 10.2913 17.3333 12.5C17.3333 14.7097 15.3947 16.5013 13 16.5013ZM13 6.33908C9.31326 6.33908 6.324 9.09721 6.324 12.5C6.324 15.9038 9.31326 18.6629 13 18.6629C16.6867 18.6629 19.676 15.9038 19.676 12.5C19.676 9.09721 16.6867 6.33908 13 6.33908ZM13 2.66259C16.4723 2.66259 16.8828 2.67562 18.2539 2.73277C19.52 2.78591 20.2099 2.98041 20.667 3.14583C21.2735 3.3634 21.7067 3.62407 22.1616 4.04315C22.6176 4.46324 22.8981 4.86227 23.1342 5.42372C23.3118 5.84681 23.5241 6.48245 23.5815 7.65248C23.6443 8.91674 23.6584 9.29673 23.6584 12.501C23.6584 15.7053 23.6443 16.0843 23.5815 17.3495C23.5241 18.5196 23.3118 19.1552 23.1342 19.5793C22.8981 20.1377 22.6176 20.5388 22.1616 20.9568C21.7078 21.3769 21.2746 21.6376 20.667 21.8552C20.2099 22.0196 19.52 22.2151 18.2539 22.2682C16.8828 22.3254 16.4723 22.3394 13 22.3394C9.52878 22.3394 9.11722 22.3254 7.74715 22.2682C6.47888 22.2151 5.79114 22.0196 5.33408 21.8552C4.72648 21.6376 4.29326 21.3769 3.83837 20.9568C3.3824 20.5388 3.10189 20.1377 2.86578 19.5793C2.68816 19.1552 2.47588 18.5196 2.4174 17.3495C2.35566 16.0843 2.34266 15.7053 2.34266 12.501C2.34266 9.29673 2.35566 8.91674 2.4174 7.65248C2.47588 6.48245 2.68816 5.84681 2.86578 5.42372C3.10189 4.86327 3.3824 4.46324 3.83837 4.04315C4.29326 3.62407 4.72648 3.3634 5.33408 3.14583C5.79114 2.98141 6.47888 2.78591 7.74715 2.73277C9.11722 2.67562 9.52878 2.66259 13 2.66259ZM13 0.5C9.46922 0.5 9.02841 0.515039 7.64101 0.572186C6.25685 0.630337 5.31134 0.834865 4.48496 1.13063C3.63043 1.43742 2.90477 1.84848 2.18129 2.5142C1.45889 3.18093 1.01483 3.84965 0.683412 4.6407C0.361743 5.40367 0.141881 6.27592 0.0779805 7.55322C0.0151629 8.83353 0 9.24058 0 12.5C0 15.7594 0.0151629 16.1675 0.0779805 17.4488C0.141881 18.7251 0.361743 19.5973 0.683412 20.3603C1.01483 21.1493 1.45889 21.8191 2.18129 22.4858C2.90477 23.1535 3.63043 23.5636 4.48496 23.8704C5.31134 24.1661 6.25685 24.3697 7.64101 24.4278C9.02841 24.486 9.46922 24.5 13 24.5C16.5297 24.5 16.9738 24.486 18.3601 24.4278C19.7431 24.3697 20.6876 24.1661 21.5161 23.8704C22.3707 23.5636 23.0952 23.1535 23.8176 22.4858C24.5411 21.8191 24.9863 21.1493 25.3177 20.3603C25.6393 19.5973 25.8581 18.7251 25.922 17.4488C25.9848 16.1675 26 15.7594 26 12.5C26 9.24058 25.9848 8.83353 25.922 7.55322C25.8581 6.27592 25.6393 5.40367 25.3177 4.6407C24.9863 3.84965 24.5411 3.18093 23.8176 2.5142C23.0952 1.84848 22.3707 1.43742 21.5161 1.13063C20.6876 0.834865 19.7431 0.630337 18.3601 0.572186C16.9738 0.515039 16.5297 0.5 13 0.5Z" fill="white"/>
</svg>
