<svg width="24" height="22" viewBox="0 0 24 22" fill="none" xmlns="http://www.w3.org/2000/svg">
<path fill-rule="evenodd" clip-rule="evenodd" d="M23.117 21.011H0.878C0.393 21.011 0 20.603 0 20.102C0 12.702 6.578 11.925 6.642 11.925C7.119 11.882 7.543 12.241 7.597 12.734C7.651 13.236 7.302 13.688 6.818 13.744C4.104 14.093 2.004 16.375 1.797 19.198H22.199C22.01 16.366 19.9 14.075 17.177 13.743C16.717 13.679 16.384 13.257 16.414 12.777C16.446 12.273 16.866 11.892 17.353 11.926C17.422 11.926 23.995 12.704 23.995 20.102C23.995 20.604 23.602 21.011 23.117 21.011ZM17.353 11.925V11.926V11.925ZM11.993 12C8.679 12 5.993 9.314 5.993 6.001C5.993 2.687 8.679 0 11.993 0C15.306 0 17.993 2.687 17.993 6.001C17.993 9.314 15.306 12 11.993 12ZM11.993 2.001C9.784 2.001 7.993 3.791 7.993 6.001C7.993 8.21 9.784 10.001 11.993 10.001C14.202 10.001 15.993 8.21 15.993 6.001C15.993 3.791 14.202 2.001 11.993 2.001Z" fill="white"/>
</svg>
