<svg width="16" height="16" viewBox="0 0 16 16" fill="none" xmlns="http://www.w3.org/2000/svg">
<path d="M5.81752 5.75C5.99384 5.24875 6.34188 4.82608 6.79998 4.55685C7.25808 4.28762 7.79669 4.1892 8.3204 4.27903C8.84411 4.36886 9.31913 4.64114 9.66132 5.04765C10.0035 5.45415 10.1908 5.96864 10.19 6.5C10.19 8 7.94002 8.75 7.94002 8.75M8 11.75H8.0075M15.5 8C15.5 12.1421 12.1421 15.5 8 15.5C3.85786 15.5 0.5 12.1421 0.5 8C0.5 3.85786 3.85786 0.5 8 0.5C12.1421 0.5 15.5 3.85786 15.5 8Z" stroke="black" stroke-linecap="round" stroke-linejoin="round"/>
</svg>
