<svg width="18" height="16" xmlns="http://www.w3.org/2000/svg">

 <g>
  <title>background</title>
  <rect fill="none" id="canvas_background" height="602" width="802" y="-1" x="-1"/>
 </g>
 <g>
  <title>Layer 1</title>
  <path fill="#da224d" id="svg_1" stroke-linejoin="round" stroke-linecap="round" stroke="black" d="m15.7663,2.2377c-0.391,-0.39239 -0.8552,-0.70366 -1.3661,-0.91602c-0.5109,-0.21237 -1.0585,-0.32168 -1.6115,-0.32168c-0.553,0 -1.1006,0.10931 -1.6115,0.32168c-0.5109,0.21236 -0.9751,0.52363 -1.36604,0.91602l-0.81136,0.81396l-0.81137,-0.81396c-0.78969,-0.79222 -1.86075,-1.23729 -2.97754,-1.23729c-1.1168,0 -2.18786,0.44507 -2.97755,1.23729c-0.78969,0.79223 -1.23334,1.86671 -1.23334,2.98709c0,1.12037 0.44365,2.19486 1.23334,2.98708l0.81136,0.81396l5.9551,5.97417l5.9551,-5.97417l0.8114,-0.81396c0.3911,-0.3922 0.7014,-0.85787 0.9131,-1.37041c0.2116,-0.51253 0.3206,-1.06188 0.3206,-1.61667c0,-0.55479 -0.109,-1.10415 -0.3206,-1.61668c-0.2117,-0.51254 -0.522,-0.97821 -0.9131,-1.37041z"/>
 </g>
</svg>